<svg width="46" height="34" viewBox="0 0 46 34" fill="none" xmlns="http://www.w3.org/2000/svg">
<path d="M45.7071 8.70711C46.0976 8.31658 46.0976 7.68342 45.7071 7.29289L39.3431 0.928932C38.9526 0.538408 38.3195 0.538408 37.9289 0.928932C37.5384 1.31946 37.5384 1.95262 37.9289 2.34315L43.5858 8L37.9289 13.6569C37.5384 14.0474 37.5384 14.6805 37.9289 15.0711C38.3195 15.4616 38.9526 15.4616 39.3431 15.0711L45.7071 8.70711ZM1 9H45V7H1V9Z" fill="black"/>
<path d="M0.292893 26.7071C-0.0976311 26.3166 -0.0976311 25.6834 0.292893 25.2929L6.65685 18.9289C7.04738 18.5384 7.68054 18.5384 8.07107 18.9289C8.46159 19.3195 8.46159 19.9526 8.07107 20.3431L2.41421 26L8.07107 31.6569C8.46159 32.0474 8.46159 32.6805 8.07107 33.0711C7.68054 33.4616 7.04738 33.4616 6.65685 33.0711L0.292893 26.7071ZM45 27H1V25H45V27Z" fill="black"/>
</svg>
